<svg xmlns="http://www.w3.org/2000/svg" width="170" height="32" viewBox="0 0 170 32">
  <defs>
    <style>
      .cls-1 {
        fill: #0a2783;
        fill-rule: evenodd;
      }
    </style>
  </defs>
  <path id="schonfeld-logo" class="cls-1" d="M169.551,19.05a4.916,4.916,0,0,1-3.085,2.945,7.127,7.127,0,0,1-2.3.361h-6.928V10.485h6.928a7.135,7.135,0,0,1,2.3.361,4.915,4.915,0,0,1,3.085,2.945A7.035,7.035,0,0,1,170,16.42,7.033,7.033,0,0,1,169.551,19.05Zm-2.367-4.57a2.819,2.819,0,0,0-.774-1.23,2.882,2.882,0,0,0-1.3-.643,8.286,8.286,0,0,0-1.84-.181H159.79v7.989h3.478a8.274,8.274,0,0,0,1.84-.181,2.875,2.875,0,0,0,1.3-.643,2.816,2.816,0,0,0,.774-1.23,6.181,6.181,0,0,0,.258-1.941A6.183,6.183,0,0,0,167.184,14.48Zm-23.7-3.995h2.5v9.81h8.642v2.038H143.482V10.485Zm-14.75.022H139.8v1.918H131.27v2.8h4.4c0.047,0,.091,0,0.134,0h1.213v1.918h-5.738v0.026H131.27v3.114h0.007v0.015h8.655v2.038h-11.2V10.507Zm-10.774,1.918h-0.675v2.8h4.406c0.055,0,.106,0,0.156,0h1.19v1.918h-5.752v5.217h-2.545V10.507h11.08v1.918h-7.86Zm-16.944,2.623,0,0-0.953-1v0.058l-0.03-.046v8.293H97.682V10.485h2.463l6.676,7,0.017-.017,0.961,1v-0.01L107.82,18.5V10.485h2.346V22.356h-2.185ZM91.329,21A7.208,7.208,0,0,1,89,22.085a9.5,9.5,0,0,1-5.026,0A7.206,7.206,0,0,1,81.635,21a6.026,6.026,0,0,1-1.728-1.884,5.207,5.207,0,0,1-.673-2.7,5.206,5.206,0,0,1,.673-2.7,6.031,6.031,0,0,1,1.728-1.884,7.787,7.787,0,0,1,2.334-1.117,8.669,8.669,0,0,1,5.026,0,7.789,7.789,0,0,1,2.334,1.117,6.036,6.036,0,0,1,1.728,1.884,5.207,5.207,0,0,1,.673,2.7,5.207,5.207,0,0,1-.673,2.7A6.031,6.031,0,0,1,91.329,21Zm-0.494-6.274a4.045,4.045,0,0,0-1.111-1.253,5.2,5.2,0,0,0-1.537-.779,5.5,5.5,0,0,0-3.411,0,5.191,5.191,0,0,0-1.537.779,4.037,4.037,0,0,0-1.111,1.253,3.572,3.572,0,0,0,0,3.385,4.039,4.039,0,0,0,1.111,1.252,5.191,5.191,0,0,0,1.537.779,5.507,5.507,0,0,0,3.411,0,5.2,5.2,0,0,0,1.537-.779,4.046,4.046,0,0,0,1.111-1.252A3.573,3.573,0,0,0,90.835,14.728Zm-18.2,6.853c0-.012,0-0.025,0-0.038V17.3h0v0H71.6v0H66.434v0H65.4v5.057H62.856V10.485H65.4V15.1h0.012v0.033h7.225V11.3c0-.013,0-0.026,0-0.038V10.485H75.18V22.356H72.636V21.581ZM49.177,19.354a4.485,4.485,0,0,0,1.5.79,6,6,0,0,0,1.806.271h0.034a8.065,8.065,0,0,0,4.949-1.783l1.1,1.776-0.008.008a11.929,11.929,0,0,1-6.043,2l-0.1.011a10.083,10.083,0,0,1-2.642-.36,6.753,6.753,0,0,1-2.3-1.117,5.494,5.494,0,0,1-1.582-1.884,5.669,5.669,0,0,1-.583-2.64,5.688,5.688,0,0,1,.583-2.629,5.58,5.58,0,0,1,1.582-1.907,6.977,6.977,0,0,1,2.3-1.151,9.558,9.558,0,0,1,2.715-.383q0.511,0,.979.036a9.827,9.827,0,0,1,4.608,1.631L57.014,13.67l0-.007a7.617,7.617,0,0,0-4.532-1.4,4.606,4.606,0,0,0-1.8.3,4.489,4.489,0,0,0-1.5.79,3.861,3.861,0,0,0-1.021,1.275,4.1,4.1,0,0,0,0,3.453A3.855,3.855,0,0,0,49.177,19.354Zm-12.625-9a14.086,14.086,0,0,1,3.556.641q0.481,0.16.834,0.3c0.081,0.033.157,0.062,0.23,0.086,0.335,0.141.673,0.3,1.009,0.482L42.2,11.871l-1.125,2.05,0-.018a7.908,7.908,0,0,0-2.626-1.3q-0.376-.11-0.788-0.189a6.767,6.767,0,0,0-2.322-.045,4.82,4.82,0,0,0-.954.237,2.1,2.1,0,0,0-.707.418,0.84,0.84,0,0,0-.28.643,0.921,0.921,0,0,0,.393.812,2.848,2.848,0,0,0,1.032.406,9.646,9.646,0,0,0,1.458.181q0.819,0.045,1.672.113a13.527,13.527,0,0,1,1.672.237,4.812,4.812,0,0,1,1.459.542,2.947,2.947,0,0,1,1.032,1,3.086,3.086,0,0,1,.393,1.647,2.907,2.907,0,0,1-.617,1.918A4.357,4.357,0,0,1,40.348,21.7a6.9,6.9,0,0,1-1.986.576,14.653,14.653,0,0,1-1.986.147H36.26l-0.041-.011a10.742,10.742,0,0,1-4.2-.815l-0.135-.065a1.963,1.963,0,0,0-.264-0.111c-0.256-.12-0.513-0.254-0.768-0.4L31.7,19.144a12.565,12.565,0,0,0,2.957,1.171q0.249,0.061.506,0.111a6.287,6.287,0,0,0,1.167.124q0.381,0,.988-0.057a5.81,5.81,0,0,0,1.189-.237,3.326,3.326,0,0,0,1.01-.5,0.99,0.99,0,0,0,.426-0.835,0.844,0.844,0,0,0-.393-0.767,2.87,2.87,0,0,0-1.032-.361,11.128,11.128,0,0,0-1.459-.147q-0.82-.034-1.672-0.1a15.062,15.062,0,0,1-1.672-.226,4.6,4.6,0,0,1-1.459-.53,2.907,2.907,0,0,1-1.032-1.016,3.192,3.192,0,0,1-.393-1.681,3.149,3.149,0,0,1,.325-1.377,3.339,3.339,0,0,1,1-1.2,5.494,5.494,0,0,1,1.705-.846,8.049,8.049,0,0,1,2.423-.327ZM6.923,32q-0.7,0-1.383-.048A18.945,18.945,0,0,0,13.809,28l-0.147.037a15.55,15.55,0,0,1-3.535.4,15.256,15.256,0,0,1-3.908-.485,9.343,9.343,0,0,1-3.195-1.485A7.344,7.344,0,0,1,.85,23.907a8.188,8.188,0,0,1-.85-3.7H4.248a4.937,4.937,0,0,0,.476,2.261A4.129,4.129,0,0,0,6.049,24,5.771,5.771,0,0,0,8,24.876a9.91,9.91,0,0,0,2.4.274,8.063,8.063,0,0,0,2.379-.307,4.9,4.9,0,0,0,1.6-.791,2.879,2.879,0,0,0,.884-1.114,3.2,3.2,0,0,0,.272-1.276,2.668,2.668,0,0,0-.629-1.954,3.614,3.614,0,0,0-1.376-.888,30.121,30.121,0,0,0-3.008-.856q-1.717-.4-4.231-1.05a9.331,9.331,0,0,1-2.6-1.017,6.1,6.1,0,0,1-1.648-1.4,4.838,4.838,0,0,1-.867-1.647A6.292,6.292,0,0,1,.918,11.07a5.764,5.764,0,0,1,.765-3.02A6.6,6.6,0,0,1,3.7,5.935,9.12,9.12,0,0,1,6.559,4.692a13.136,13.136,0,0,1,3.229-.4,13.333,13.333,0,0,1,3.586.468,9.446,9.446,0,0,1,2.169.9,18.633,18.633,0,0,0-10-5.6Q6.225,0,6.923,0c9.847,0,17.83,7.163,17.83,16h0C24.754,24.837,16.771,32,6.923,32ZM19.65,16A14.812,14.812,0,0,0,19,11.651H14.852a3.83,3.83,0,0,0-1.6-3.149,6.594,6.594,0,0,0-3.636-.92,8.345,8.345,0,0,0-1.529.145,5.016,5.016,0,0,0-1.427.484,3.08,3.08,0,0,0-1.071.92,2.4,2.4,0,0,0-.425,1.453,2.411,2.411,0,0,0,.8,1.922,5.256,5.256,0,0,0,2.09,1.05q0.135,0.033,1.071.274t2.09,0.533q1.155,0.291,2.26.565t1.58,0.4a7.268,7.268,0,0,1,2.073.969,6.393,6.393,0,0,1,1.478,1.4A5.787,5.787,0,0,1,19.342,19a14.81,14.81,0,0,0,.308-3h0Z"/>
</svg>
